<?xml version="1.0" encoding="iso-8859-1"?>
<!-- Generator: Adobe Illustrator 19.0.0, SVG Export Plug-In . SVG Version: 6.00 Build 0)  -->
<svg xmlns="http://www.w3.org/2000/svg" xmlns:xlink="http://www.w3.org/1999/xlink" version="1.1" id="Capa_1" x="0px" y="0px" viewBox="0 0 511.998 511.998" style="enable-background:new 0 0 511.998 511.998;" xml:space="preserve">
<g>
	<g>
		<path d="M511.965,449.257c-0.009-0.093-0.024-0.184-0.036-0.276c-0.014-0.102-0.022-0.204-0.04-0.306l-28.345-160.099    l-7.845-79.712c-0.394-4.005-3.961-6.937-7.965-6.537c-4.005,0.394-6.932,3.96-6.538,7.965l7.086,71.991H352.234    c-0.003,0-0.006,0-0.009,0h-27.08c-3.666,0-6.648-2.982-6.648-6.648v-13.406v-37.86v-34.176v-37.862v-15.85h119.211    c9.248,0,16.904,6.94,17.81,16.143l2.726,27.7c0.394,4.005,3.951,6.929,7.965,6.537c4.005-0.394,6.932-3.96,6.537-7.965    l-2.726-27.7c-1.644-16.697-15.535-29.288-32.313-29.288h-29.821V87.747h-0.001c5.513-2.016,9.466-7.298,9.466-13.5V27.449    c0-7.932-6.453-14.385-14.385-14.385h-94.122c-7.932,0-14.385,6.453-14.385,14.385v46.798c0,6.202,3.953,11.485,9.466,13.5h-0.001    v41.448v15.85h-2.712c0.205-0.862,0.315-1.759,0.315-2.683v-13.23c0-6.411-5.216-11.628-11.627-11.628h-67.802    c-6.411,0-11.627,5.216-11.627,11.628v13.23c0,0.924,0.111,1.821,0.315,2.683h-2.712v-15.85c0-0.073-0.009-0.144-0.011-0.216    V87.747h-0.001c5.513-2.016,9.466-7.298,9.466-13.5V27.449c0-7.932-6.453-14.385-14.385-14.385h-94.122    c-7.932,0-14.385,6.453-14.385,14.385v46.798c0,6.202,3.953,11.485,9.466,13.5h-0.001v34.162h-29.81    c-16.778,0-30.669,12.592-32.313,29.289l-13.521,137.38L14.48,367.519c-0.702,3.963,1.942,7.744,5.905,8.445    c3.964,0.698,7.743-1.943,8.445-5.905l12.96-73.203h111.874l25.814,145.802H15.976l7.56-42.698    c0.702-3.963-1.942-7.744-5.905-8.445c-3.965-0.702-7.744,1.942-8.445,5.905l-9.074,51.255c-0.018,0.101-0.027,0.204-0.04,0.306    c-0.012,0.092-0.028,0.183-0.036,0.276C0.013,449.486,0,449.716,0,449.946v26.291c0,12.515,10.182,22.697,22.697,22.697h150.062    c12.515,0,22.696-10.182,22.696-22.697v-26.291c0-0.23-0.013-0.46-0.035-0.689c-0.009-0.093-0.024-0.184-0.036-0.276    c-0.014-0.102-0.022-0.204-0.04-0.306l-26.88-151.819h18.39c11.701,0,21.221-9.519,21.221-21.221v-6.119h8.492    c-3.625,1.971-6.096,5.806-6.096,10.215v13.23c0,6.411,5.216,11.628,11.627,11.628H289.9c6.411,0,11.627-5.216,11.627-11.628    v-13.23c0-4.408-2.471-8.244-6.096-10.215h8.492v6.119c0,11.701,9.52,21.221,21.221,21.221h18.39l-26.88,151.819    c-0.018,0.101-0.027,0.204-0.04,0.306c-0.012,0.092-0.028,0.183-0.036,0.276c-0.022,0.229-0.035,0.459-0.035,0.689v26.291    c0,12.515,10.182,22.697,22.696,22.697h150.062c12.515,0,22.697-10.182,22.697-22.697v-26.291    C512,449.716,511.987,449.486,511.965,449.257z M180.882,476.237c0,4.48-3.644,8.124-8.123,8.124H22.697    c-4.48,0-8.124-3.644-8.124-8.124v-19.004h166.309V476.237z M193.503,152.333v37.862v34.176v37.862v13.404h-0.001    c0,3.666-2.982,6.648-6.648,6.648h-27.08c-0.003,0-0.006,0-0.009,0H43.72l12.762-129.659c0.906-9.203,8.563-16.143,17.81-16.143    h119.211V152.333z M118.675,121.909V88.632h74.817v33.277H118.675z M202.956,74.059H109.21V27.637h93.746V74.059z M217.5,254.944    h-9.425v-23.289h9.425V254.944z M217.5,217.082h-9.425V197.48h9.425V217.082z M217.5,182.907h-9.425v-23.289h9.425V182.907z     M286.955,290.017h-61.91v-7.339h61.91V290.017z M232.073,268.105V153.99h47.854v114.115H232.073z M286.955,139.416h-61.91v-7.338    h61.91V139.416z M303.925,254.944H294.5v-23.289h9.425V254.944z M303.925,217.082H294.5V197.48h9.425V217.082z M303.925,182.907    H294.5v-23.289h9.425V182.907z M393.315,121.909h-74.817V88.632h74.817V121.909z M309.033,74.059V27.637h93.746v46.422H309.033z     M358.335,296.858h111.874l25.814,145.802H332.521L358.335,296.858z M497.427,476.237c0,4.48-3.644,8.124-8.124,8.124H339.241    c-4.479,0-8.123-3.644-8.123-8.124v-19.004h166.309V476.237z" fill="#D80027"/>
	</g>
</g>
<g>
</g>
<g>
</g>
<g>
</g>
<g>
</g>
<g>
</g>
<g>
</g>
<g>
</g>
<g>
</g>
<g>
</g>
<g>
</g>
<g>
</g>
<g>
</g>
<g>
</g>
<g>
</g>
<g>
</g>
</svg>
