<?xml version="1.0" encoding="UTF-8" standalone="no"?>
<!-- Generator: Adobe Illustrator 16.0.0, SVG Export Plug-In . SVG Version: 6.00 Build 0)  -->

<svg
   xmlns:dc="http://purl.org/dc/elements/1.1/"
   xmlns:cc="http://creativecommons.org/ns#"
   xmlns:rdf="http://www.w3.org/1999/02/22-rdf-syntax-ns#"
   xmlns:svg="http://www.w3.org/2000/svg"
   xmlns="http://www.w3.org/2000/svg"
   xmlns:sodipodi="http://sodipodi.sourceforge.net/DTD/sodipodi-0.dtd"
   xmlns:inkscape="http://www.inkscape.org/namespaces/inkscape"
   version="1.1"
   id="Capa_1"
   x="0px"
   y="0px"
   viewBox="0 0 378.94 378.94"
   style="enable-background:new 0 0 378.94 378.94;"
   xml:space="preserve"
   inkscape:version="0.91 r13725"
   sodipodi:docname="heart-red.svg"><metadata
     id="metadata41"><rdf:RDF><cc:Work
         rdf:about=""><dc:format>image/svg+xml</dc:format><dc:type
           rdf:resource="http://purl.org/dc/dcmitype/StillImage" /></cc:Work></rdf:RDF></metadata><defs
     id="defs39" /><sodipodi:namedview
     pagecolor="#ffffff"
     bordercolor="#666666"
     borderopacity="1"
     objecttolerance="10"
     gridtolerance="10"
     guidetolerance="10"
     inkscape:pageopacity="0"
     inkscape:pageshadow="2"
     inkscape:window-width="1366"
     inkscape:window-height="705"
     id="namedview37"
     showgrid="false"
     inkscape:zoom="0.62278988"
     inkscape:cx="189.47"
     inkscape:cy="189.47"
     inkscape:window-x="-8"
     inkscape:window-y="-8"
     inkscape:window-maximized="1"
     inkscape:current-layer="Capa_1" /><g
     id="g3"><path
       d="M 348.151,54.514 C 328.268,34.63 301.836,23.688 273.716,23.688 c -28.124,0 -54.559,10.942 -74.449,30.826 l -9.798,9.8 -9.798,-9.8 C 159.787,34.63 133.346,23.688 105.228,23.688 c -28.117,0 -54.56,10.942 -74.442,30.826 -41.049,41.053 -41.049,107.848 0,148.885 l 147.09,147.091 c 2.405,2.414 5.399,3.892 8.527,4.461 1.049,0.207 2.104,0.303 3.161,0.303 4.161,0 8.329,-1.587 11.498,-4.764 L 348.152,203.399 C 389.203,162.362 389.203,95.567 348.151,54.514 Z"
       id="path5"
       inkscape:connector-curvature="0"
       style="fill:#ff0000"
       sodipodi:nodetypes="sscccsscccsccs" /></g><g
     id="g7" /><g
     id="g9" /><g
     id="g11" /><g
     id="g13" /><g
     id="g15" /><g
     id="g17" /><g
     id="g19" /><g
     id="g21" /><g
     id="g23" /><g
     id="g25" /><g
     id="g27" /><g
     id="g29" /><g
     id="g31" /><g
     id="g33" /><g
     id="g35" /></svg>