<?xml version="1.0" encoding="UTF-8" standalone="no"?>
<!-- Generator: Adobe Illustrator 19.0.0, SVG Export Plug-In . SVG Version: 6.00 Build 0)  -->

<svg
   xmlns:dc="http://purl.org/dc/elements/1.1/"
   xmlns:cc="http://creativecommons.org/ns#"
   xmlns:rdf="http://www.w3.org/1999/02/22-rdf-syntax-ns#"
   xmlns:svg="http://www.w3.org/2000/svg"
   xmlns="http://www.w3.org/2000/svg"
   xmlns:sodipodi="http://sodipodi.sourceforge.net/DTD/sodipodi-0.dtd"
   xmlns:inkscape="http://www.inkscape.org/namespaces/inkscape"
   version="1.1"
   id="Layer_1"
   x="0px"
   y="0px"
   viewBox="0 0 296.999 296.999"
   style="enable-background:new 0 0 296.999 296.999;"
   xml:space="preserve"
   inkscape:version="0.91 r13725"
   sodipodi:docname="logout-grey-blue.svg"><metadata
     id="metadata50"><rdf:RDF><cc:Work
         rdf:about=""><dc:format>image/svg+xml</dc:format><dc:type
           rdf:resource="http://purl.org/dc/dcmitype/StillImage" /></cc:Work></rdf:RDF></metadata><defs
     id="defs48" /><sodipodi:namedview
     pagecolor="#ffffff"
     bordercolor="#666666"
     borderopacity="1"
     objecttolerance="10"
     gridtolerance="10"
     guidetolerance="10"
     inkscape:pageopacity="0"
     inkscape:pageshadow="2"
     inkscape:window-width="764"
     inkscape:window-height="480"
     id="namedview46"
     showgrid="false"
     inkscape:zoom="0.79461549"
     inkscape:cx="148.4995"
     inkscape:cy="148.4995"
     inkscape:window-x="0"
     inkscape:window-y="0"
     inkscape:window-maximized="0"
     inkscape:current-layer="Layer_1" /><g
     id="g3"
     transform="matrix(-1,0,0,1,296.9985,0)"><g
       id="XMLID_46_"><g
         id="g6"><path
           style="fill:#e6e6e6"
           d="m 167.717,142.069 c 3.55,0 6.43,2.88 6.43,6.43 0,3.55 -2.88,6.43 -6.43,6.43 l -103.4,0 c -3.65,0 -7,2.01 -8.72,5.23 -1.73,3.22 -1.54,7.12 0.49,10.16 l 11.51,17.27 -19.75,0 -26.06,-39.09 26.06,-39.09 19.75,0 -11.51,17.27 c -2.03,3.04 -2.22,6.94 -0.49,10.16 1.72,3.22 5.07,5.23 8.72,5.23 l 103.4,0 z"
           id="path8"
           inkscape:connector-curvature="0" /><path
           style="fill:#e6e6e6"
           d="m 154.849,26.139 c 67.47,0 122.36,54.89 122.36,122.36 0,67.47 -54.89,122.36 -122.36,122.36 -22.9,0 -44.9,-6.25 -64.16,-18.15 l 12.04,-19.54 c 14.64,8.37 31.11,12.75 48.22,12.75 53.71,0 97.42,-43.7 97.42,-97.42 0,-53.72 -43.71,-97.42 -97.42,-97.42 -17.11,0 -33.58,4.38 -48.22,12.75 l -12.04,-19.54 c 19.26,-11.9 41.259,-18.15 64.16,-18.15 z"
           id="path10"
           inkscape:connector-curvature="0" /><path
           style="fill:#303c42"
           d="m 154.849,6.349 c 78.38,0 142.15,63.77 142.15,142.15 0,78.38 -63.77,142.15 -142.15,142.15 -30.18,0 -59.01,-9.34 -83.38,-27.02 -4.19,-3.04 -5.33,-8.8 -2.62,-13.21 l 22.33,-36.22 c 1.45,-2.35 3.8,-3.98 6.51,-4.52 2.7,-0.53 5.5,0.08 7.73,1.7 13.3,9.65 29.04,14.75 45.53,14.75 42.8,0 77.63,-34.82 77.63,-77.63 0,-42.81 -34.83,-77.63 -77.63,-77.63 -16.49,0 -32.23,5.1 -45.53,14.75 -2.23,1.62 -5.03,2.23 -7.73,1.7 -2.71,-0.54 -5.06,-2.17 -6.51,-4.52 l -22.33,-36.22 c -2.71,-4.41 -1.57,-10.17 2.62,-13.21 24.37,-17.68 53.2,-27.02 83.38,-27.02 z m 122.359,142.15 c 0,-67.47 -54.89,-122.36 -122.36,-122.36 -22.9,0 -44.9,6.25 -64.16,18.15 l 12.04,19.54 c 14.64,-8.37 31.11,-12.75 48.22,-12.75 53.71,0 97.42,43.7 97.42,97.42 0,53.72 -43.71,97.42 -97.42,97.42 -17.11,0 -33.58,-4.38 -48.22,-12.75 l -12.04,19.54 c 19.26,11.9 41.26,18.15 64.16,18.15 67.47,0 122.36,-54.89 122.36,-122.36 z"
           id="path12"
           inkscape:connector-curvature="0" /><path
           style="fill:#303c42"
           d="m 167.717,122.279 c 14.46,0 26.22,11.76 26.22,26.22 0,14.46 -11.76,26.22 -26.22,26.22 l -84.91,0 11.51,17.27 c 2.03,3.04 2.21,6.94 0.49,10.16 -1.72,3.22 -5.07,5.22 -8.72,5.22 l -43.54,0 c -3.31,0 -6.4,-1.65 -8.23,-4.4 l -32.66,-48.98 c -2.21,-3.32 -2.21,-7.66 0,-10.98 l 32.66,-48.98 c 1.83,-2.75 4.92,-4.4 8.23,-4.4 l 43.54,0 c 3.65,0 7,2 8.72,5.22 1.72,3.22 1.54,7.12 -0.49,10.16 l -11.51,17.27 84.91,0 0,0 z m 6.431,26.22 c 0,-3.55 -2.88,-6.43 -6.43,-6.43 l -103.4,0 c -3.65,0 -7,-2.01 -8.72,-5.23 -1.73,-3.22 -1.54,-7.12 0.49,-10.16 l 11.51,-17.27 -19.75,0 -26.06,39.09 26.06,39.09 19.75,0 -11.51,-17.27 c -2.03,-3.04 -2.22,-6.94 -0.49,-10.16 1.72,-3.22 5.07,-5.23 8.72,-5.23 l 103.4,0 c 3.551,0 6.43,-2.88 6.43,-6.43 z"
           id="path14"
           inkscape:connector-curvature="0" /></g></g></g><g
     id="g16" /><g
     id="g18" /><g
     id="g20" /><g
     id="g22" /><g
     id="g24" /><g
     id="g26" /><g
     id="g28" /><g
     id="g30" /><g
     id="g32" /><g
     id="g34" /><g
     id="g36" /><g
     id="g38" /><g
     id="g40" /><g
     id="g42" /><g
     id="g44" /></svg>