<?xml version="1.0" encoding="UTF-8" standalone="no"?>
<!-- Created with Inkscape (http://www.inkscape.org/) -->

<svg
   xmlns:dc="http://purl.org/dc/elements/1.1/"
   xmlns:cc="http://creativecommons.org/ns#"
   xmlns:rdf="http://www.w3.org/1999/02/22-rdf-syntax-ns#"
   xmlns:svg="http://www.w3.org/2000/svg"
   xmlns="http://www.w3.org/2000/svg"
   xmlns:sodipodi="http://sodipodi.sourceforge.net/DTD/sodipodi-0.dtd"
   xmlns:inkscape="http://www.inkscape.org/namespaces/inkscape"
   width="405px"
   height="176px"
   viewBox="0 0 405 176"
   version="1.1"
   id="SVGRoot"
   inkscape:version="0.91 r13725"
   sodipodi:docname="pn-handycheera.svg">
  <sodipodi:namedview
     id="base"
     pagecolor="#ffffff"
     bordercolor="#666666"
     borderopacity="1.0"
     inkscape:pageopacity="0.0"
     inkscape:pageshadow="2"
     inkscape:zoom="0.35"
     inkscape:cx="221.82848"
     inkscape:cy="-83.714286"
     inkscape:document-units="px"
     inkscape:current-layer="layer1"
     showgrid="false"
     inkscape:window-width="518"
     inkscape:window-height="580"
     inkscape:window-x="535"
     inkscape:window-y="243"
     inkscape:window-maximized="0" />
  <defs
     id="defs34" />
  <metadata
     id="metadata37">
    <rdf:RDF>
      <cc:Work
         rdf:about="">
        <dc:format>image/svg+xml</dc:format>
        <dc:type
           rdf:resource="http://purl.org/dc/dcmitype/StillImage" />
        <dc:title />
      </cc:Work>
    </rdf:RDF>
  </metadata>
  <g
     id="layer1"
     inkscape:groupmode="layer"
     inkscape:label="Livello 1">
    <g
       style="font-style:normal;font-weight:normal;font-size:40px;line-height:1.25;font-family:sans-serif;letter-spacing:0px;word-spacing:0px;fill:#9acd32;fill-opacity:1;stroke:none"
       id="text52">
      <path
         d="m 76.84003,47.964657 q 0.119792,-1.197916 0.119792,-2.395833 0,-7.726562 -4.252604,-12.338542 -2.216146,-2.395833 -5.450521,-3.653645 -3.114583,-1.257813 -6.947916,-1.257813 -7.367188,0 -15.333334,4.252604 -8.445312,4.552084 -15.273437,12.817708 -7.546875,9.104167 -11.739583,21.263021 -4.671875,13.656249 -4.671875,29.828124 -5.4505204,0 -8.3854162,-4.552083 -2.6953124,-4.192708 -2.6953124,-11.5 0,-8.744791 3.8333332,-18.807291 Q 10.116073,50.899553 17.363469,42.03497 25.329615,32.212053 35.691594,26.701637 47.371281,20.47247 60.728051,20.47247 q 5.869792,0.239584 10.960938,2.036459 5.330729,1.85677 9.223958,5.270833 4.132812,3.59375 6.408854,8.565104 2.395833,5.330729 2.575521,12.039062 0,8.145833 -3.473959,15.632812 -3.054687,6.528646 -8.385416,11.799479 -4.731771,4.731771 -10.122396,7.367187 -4.552083,2.335938 -7.90625,2.335938 -0.41927,0 -0.778645,-0.0599 -1.138021,-0.0599 -2.45573,-1.197917 -1.197916,-1.018229 -2.276041,-2.755208 -2.335938,-3.59375 -2.455729,-6.229166 l -1.317709,4.072916 -1.317708,4.013021 q -1.4375,4.611979 -2.455729,7.90625 -1.916667,6.289062 -3.054687,10.302086 -1.73698,6.10937 -2.875,11.14062 -2.994792,12.87761 -2.994792,21.5625 0,0.95833 0.0599,1.31771 0.0599,0.35937 0.0599,0.41927 0,0.23958 -0.179688,0.41927 -0.179687,0.23958 -0.419271,0.23958 -3.414062,0 -8.565104,-2.15625 -2.515625,-1.07812 -4.01302,-2.21614 -1.677084,-1.31771 -1.677084,-2.57552 0,-8.32552 2.815104,-20.54427 2.45573,-10.24219 6.049479,-20.125002 1.73698,-4.731771 5.450521,-13.955729 l 1.4375,-3.533854 q 0.778646,-1.916667 1.377604,-3.473958 1.557292,-3.893229 2.635417,-6.888021 5.869791,-15.932291 5.869791,-24.976562 0,-0.299479 -0.0599,-0.958333 -0.0599,-0.658854 -0.0599,-0.778646 0,-0.239583 0.119791,-0.419271 0.179688,-0.179687 0.479167,-0.179687 1.856771,0 3.354167,0.0599 2.096354,0.119792 3.653645,0.419271 4.252605,0.778646 4.252605,2.815104 0,6.888021 -2.45573,17.070313 -1.796875,7.247395 -5.690104,19.466145 0.898438,-1.138021 4.791667,-2.994792 l 0.419271,-0.179687 0.479166,-0.239583 q 0.539063,-0.239584 0.838542,-0.419271 1.078125,-0.479167 1.916667,-0.898438 2.15625,-1.078125 3.893229,-2.216146 4.611979,-2.934895 7.427083,-6.88802 3.533854,-4.971354 4.552083,-11.919271 z"
         style="font-style:normal;font-variant:normal;font-weight:normal;font-stretch:normal;font-size:122.66666412px;font-family:Handycheera;-inkscape-font-specification:Handycheera"
         id="path3336" />
      <path
         d="m 99.780133,116.24591 q 13.596357,-0.17969 21.562497,-15.63282 l 8.625,-20.005204 q 0.95834,-2.276042 2.27604,-3.174479 1.25782,-0.898438 3.41407,-0.898438 l -4.3724,10.182292 -6.58854,15.273439 q -4.3724,10.12239 -11.73958,16.29166 -8.44532,7.12761 -18.807295,7.12761 -3.653646,0 -6.648437,-1.37761 -2.934896,-1.3776 -5.03125,-3.89323 -4.3125,-5.27083 -4.3125,-14.01562 0,-7.367187 2.335937,-14.434895 2.335938,-6.888021 6.408854,-12.278646 4.192708,-5.510417 9.523438,-8.565104 5.570313,-3.234375 11.619793,-3.234375 4.19271,0 6.88802,2.695313 2.51562,2.455729 2.51562,5.989583 0,5.690104 -2.875,11.320312 -2.51562,5.03125 -6.88802,9.403646 -3.95312,4.013016 -8.505205,6.408856 -4.372396,2.33594 -7.666667,2.33594 0,4.91145 1.617188,7.48697 2.036458,2.9948 6.648437,2.9948 z m 6.348957,-39.052087 q 0,-0.539062 -0.23958,-0.898437 -0.29948,-0.359375 -0.71875,-0.359375 -0.95834,0 -2.875,1.856771 -2.21615,2.036458 -4.252606,5.270833 -5.570312,8.625 -6.348958,19.166665 0.598958,0 2.875,-2.755207 2.395833,-2.934896 4.911458,-6.768229 2.874996,-4.432292 4.611976,-8.205729 2.03646,-4.552084 2.03646,-7.307292 z"
         style="font-style:normal;font-variant:normal;font-weight:normal;font-stretch:normal;font-size:122.66666412px;font-family:Handycheera;-inkscape-font-specification:Handycheera"
         id="path3338" />
      <path
         d="m 127.93117,70.186011 q 0,-0.359375 -0.11979,-1.018229 -0.0599,-0.71875 -0.0599,-0.838542 0,-0.239583 0.17968,-0.479167 0.17969,-0.179687 0.41927,-0.179687 1.01823,0 2.9349,0.239583 2.27604,0.299479 4.2526,0.71875 5.63021,1.257813 5.63021,3.054688 0,1.85677 -1.55729,7.007812 -0.53906,1.736979 -4.49219,14.015625 -3.89323,12.278646 -3.89323,19.825516 0.59896,-3.89322 2.875,-11.91927 2.9349,-8.265621 7.30729,-16.291663 4.85157,-9.04427 9.76303,-14.374999 5.6901,-6.169271 10.36197,-6.169271 1.31771,0 2.69532,1.018229 1.25781,0.958333 2.39583,2.515625 1.07813,1.557292 1.73698,3.234375 0.65885,1.736979 0.65885,3.054687 0,1.497396 -1.67708,6.289063 -0.53906,1.617187 -4.73177,13.117187 -4.13281,11.499997 -4.13281,17.789067 0,2.15624 0.95833,3.47395 1.01823,1.37761 2.75521,1.37761 5.45052,0 10.18229,-5.63021 2.9349,-3.47396 5.51042,-9.40365 l 8.625,-20.005204 q 0.95833,-2.276042 2.21614,-3.174479 1.31771,-0.898438 3.47396,-0.898438 l -4.43229,10.182292 -6.58854,15.273439 q -2.81511,6.52864 -5.92969,11.08073 -7.96615,11.5 -18.6875,11.5 -5.57031,0 -8.5651,-4.73177 -2.51563,-3.89323 -2.51563,-9.22396 0,-6.10938 2.27604,-15.632815 1.61719,-6.828125 4.61198,-16.411458 -1.19791,0 -4.37239,4.671875 -2.9948,4.492188 -6.40886,11.020833 -3.53385,6.947915 -5.75,12.877605 -2.51562,6.76823 -2.51562,10.24219 0,1.07812 0.23958,1.85677 0.29948,0.77864 0.29948,0.95833 0,0.29948 -0.17969,0.47917 -0.17969,0.17968 -0.35937,0.17968 -3.71354,0 -5.63021,-0.23958 -2.8151,-0.29948 -4.55208,-1.19792 -2.09636,-1.01822 -3.11459,-3.05468 -1.13802,-2.21615 -1.13802,-5.75 0,-3.77344 1.37761,-9.46354 0.83854,-3.414066 4.1927,-14.434899 3.41407,-11.080729 3.47396,-16.53125 z"
         style="font-style:normal;font-variant:normal;font-weight:normal;font-stretch:normal;font-size:122.66666412px;font-family:Handycheera;-inkscape-font-specification:Handycheera"
         id="path3340" />
      <path
         d="m 190.40253,120.19903 q 0,0.29948 -0.17969,0.47917 -0.17968,0.17968 -0.35937,0.17968 -3.71354,0 -5.63021,-0.23958 -2.8151,-0.29948 -4.55208,-1.19792 -2.09636,-1.01822 -3.11459,-3.05468 -1.13802,-2.21615 -1.13802,-5.75 0,-8.98438 3.47396,-21.143231 2.33594,-8.145833 7.72656,-21.921875 3.29427,-8.445312 4.07292,-10.541666 2.21615,-5.869792 3.59375,-10.002604 3.47396,-10.661458 3.47396,-17.070312 0,-2.15625 -0.95833,-3.473959 -1.01823,-1.377604 -2.75521,-1.377604 -0.41927,0 -1.67709,0.239584 0.71875,-2.15625 1.91667,-3.294271 1.4974,-1.557292 3.95313,-1.557292 5.57031,0 8.5651,4.731771 2.51562,3.893229 2.51562,9.223958 0,10.661458 -10.78125,37.79427 -10.78124,27.132812 -10.78124,40.309891 0.59895,-4.61197 3.05468,-12.817704 2.99479,-8.145833 7.60677,-16.171875 5.09115,-8.684895 10.18229,-13.895833 5.8099,-5.869791 10.54167,-5.869791 1.25781,0 2.69531,1.018229 1.25782,0.958333 2.39584,2.515625 1.01823,1.557292 1.67708,3.234375 0.65885,1.736979 0.65885,3.054687 0,4.731771 -1.3177,9.044271 -1.5573,5.270833 -4.19271,5.270833 -4.13281,0 -8.38542,-0.419271 -4.19271,-0.41927 -4.19271,-1.796875 0,-0.658854 0.71875,-3.29427 0.77865,-2.575521 0.77865,-3.833334 -0.89844,0 -3.41406,2.815104 -2.33594,2.695313 -5.39063,7.127604 0.95833,4.192709 2.33594,8.325521 1.61719,4.971354 3.41406,8.864584 4.67188,9.94271 9.28386,9.94271 5.39062,0 10.18229,-5.63021 2.93489,-3.47396 5.51041,-9.40365 l 8.56511,-20.005204 q 1.01823,-2.276042 2.27604,-3.174479 1.25781,-0.898438 3.41406,-0.898438 l -4.37239,10.182292 -6.58855,15.273439 q -2.8151,6.52864 -5.92968,11.08073 -8.02604,11.5 -18.6875,11.5 -6.28907,0 -11.26042,-6.70834 -3.77344,-5.03125 -7.1276,-14.49479 -1.79688,3.59375 -2.27605,7.90625 -0.11979,1.4974 -0.11979,3.35417 0,2.45573 0.29948,3.77344 0.29948,1.25781 0.29948,1.79687 z"
         style="font-style:normal;font-variant:normal;font-weight:normal;font-stretch:normal;font-size:122.66666412px;font-family:Handycheera;-inkscape-font-specification:Handycheera"
         id="path3342" />
      <path
         d="m 238.37909,70.186011 q 0,-0.359375 -0.11979,-1.018229 -0.0599,-0.71875 -0.0599,-0.838542 0,-0.239583 0.17968,-0.479167 0.17969,-0.179687 0.41928,-0.179687 1.01822,0 2.93489,0.239583 2.27604,0.299479 4.2526,0.71875 5.63021,1.257813 5.63021,3.054688 0,1.85677 -1.55729,7.007812 -0.53906,1.736979 -4.49219,14.015625 -3.89322,12.278646 -3.89322,19.825516 0.59895,-3.89322 2.87499,-11.91927 2.9349,-8.265621 7.3073,-16.291663 4.85156,-9.04427 9.76302,-14.374999 5.6901,-6.169271 10.36198,-6.169271 1.3177,0 2.69531,1.018229 1.25781,0.958333 2.39583,2.515625 1.07813,1.557292 1.73698,3.234375 0.65886,1.736979 0.65886,3.054687 0,1.497396 -1.67709,6.289063 -0.53906,1.617187 -4.73177,13.117187 -4.13281,11.499997 -4.13281,17.789067 0,2.15624 0.95833,3.47395 1.01823,1.37761 2.75521,1.37761 5.45052,0 10.18229,-5.63021 2.9349,-3.47396 5.51042,-9.40365 l 8.625,-20.005204 q 0.95833,-2.276042 2.21614,-3.174479 1.31771,-0.898438 3.47396,-0.898438 l -4.43229,10.182292 -6.58854,15.273439 q -2.81511,6.52864 -5.92969,11.08073 -7.96614,11.5 -18.6875,11.5 -5.57031,0 -8.5651,-4.73177 -2.51563,-3.89323 -2.51563,-9.22396 0,-6.10938 2.27604,-15.632815 1.61719,-6.828125 4.61198,-16.411458 -1.19791,0 -4.37239,4.671875 -2.99479,4.492188 -6.40886,11.020833 -3.53385,6.947915 -5.75,12.877605 -2.51562,6.76823 -2.51562,10.24219 0,1.07812 0.23958,1.85677 0.29948,0.77864 0.29948,0.95833 0,0.29948 -0.17969,0.47917 -0.17968,0.17968 -0.35937,0.17968 -3.71354,0 -5.63021,-0.23958 -2.8151,-0.29948 -4.55208,-1.19792 -2.09636,-1.01822 -3.11459,-3.05468 -1.13802,-2.21615 -1.13802,-5.75 0,-3.77344 1.37761,-9.46354 0.83854,-3.414066 4.19271,-14.434899 3.41406,-11.080729 3.47395,-16.53125 z"
         style="font-style:normal;font-variant:normal;font-weight:normal;font-stretch:normal;font-size:122.66666412px;font-family:Handycheera;-inkscape-font-specification:Handycheera"
         id="path3344" />
      <path
         d="m 299.83221,114.26934 q 1.01823,1.37761 2.75521,1.37761 5.39062,0 10.18229,-5.63021 2.93489,-3.47396 5.45052,-9.40365 l 8.625,-20.005204 q 0.95833,-2.276042 2.27604,-3.174479 1.25781,-0.898438 3.41406,-0.898438 l -4.37239,10.182292 -6.58854,15.273439 q -2.81511,6.52864 -5.92969,11.08073 -8.02604,11.5 -18.6875,11.5 -5.57031,0 -8.625,-4.73177 -2.45573,-3.89323 -2.45573,-9.22396 0,-4.97136 1.4974,-11.380211 1.01823,-4.611979 3.23437,-11.380208 2.75521,-8.265625 3.29427,-10.122395 1.4375,-5.03125 1.4375,-7.546875 0,-0.299479 -0.0599,-0.898438 -0.0599,-0.658854 -0.0599,-0.958333 0,-0.239583 0.17969,-0.479167 0.17968,-0.179687 0.41927,-0.179687 2.75521,0.0599 3.83333,0.119792 2.63542,0.119791 4.73177,0.479166 5.69011,1.018229 5.69011,3.473958 0,2.335938 -1.73698,7.546875 -0.65886,1.976563 -3.89323,10.541667 -5.63021,14.973956 -5.63021,20.963546 0,2.15624 1.01823,3.47395 z m 16.41146,-58.8776 q -0.0599,1.916667 -0.95834,3.833334 -1.55729,3.29427 -4.67187,4.73177 -1.4974,0.598959 -3.05469,0.658854 -1.55729,0 -2.93489,-0.658854 -2.9349,-1.377604 -3.83334,-4.671875 -0.35937,-1.13802 -0.35937,-2.276041 0,-2.15625 0.95833,-4.3125 1.4974,-3.294271 4.67188,-4.671875 1.4375,-0.658854 2.99479,-0.71875 1.61718,0 2.99479,0.658854 2.93489,1.377604 3.89323,4.671875 0.29948,1.377604 0.29948,2.755208 z"
         style="font-style:normal;font-variant:normal;font-weight:normal;font-stretch:normal;font-size:122.66666412px;font-family:Handycheera;-inkscape-font-specification:Handycheera"
         id="path3346" />
      <path
         d="m 317.86084,162.06622 q 0,1.67708 0.47917,2.33593 0.17969,0.23959 0.41927,0.29948 0.17969,0.0599 0.47917,0.0599 1.49739,0 2.99479,-2.875 1.4375,-2.75521 2.57552,-7.60677 2.51563,-10.54167 2.51563,-23.71875 0,-2.03646 -0.23959,-4.97135 l -0.23958,-2.51563 q -0.11979,-1.67708 -0.17969,-2.45573 -8.80469,31.625 -8.80469,41.44792 z m 40.72917,-81.458334 q 0.95833,-2.276042 2.21615,-3.174479 1.3177,-0.898438 3.47395,-0.898438 l -4.43229,10.182292 -6.58854,15.273439 q -3.95312,9.22396 -8.14583,13.11718 -5.15104,4.91146 -14.01563,5.63021 1.61719,9.64323 1.61719,19.22657 0,4.37239 -0.59896,9.04427 -0.77864,5.86979 -2.27604,10.48177 -1.85677,5.57031 -4.67187,8.68489 -3.29427,3.59375 -7.72657,3.59375 -4.37239,0 -6.34895,-5.45052 -0.77865,-2.15625 -1.07813,-4.97135 -0.29948,-2.33594 -0.29948,-4.85157 0,-13.11718 4.61198,-36.11718 4.55208,-22.760418 11.61979,-45.101563 7.54688,-24.138021 15.21354,-38.51302 8.625,-16.291667 15.51302,-16.291667 3.41407,0 5.75,1.796875 2.39584,1.856771 2.39584,4.911458 0,1.257813 -0.41927,2.515625 -1.01823,-1.736979 -3.17448,-1.736979 -2.51563,0 -6.28907,7.247396 -3.29427,6.46875 -7.72656,18.927083 -3.71354,10.302083 -8.5651,26.054687 -3.05469,9.822916 -8.6849,28.809895 0.83854,1.73698 2.51563,2.63542 1.49739,0.83854 3.59375,0.83854 5.15104,0 8.625,-3.41406 2.75521,-2.63542 5.27083,-8.44532 l 8.625,-20.005204 z"
         style="font-style:normal;font-variant:normal;font-weight:normal;font-stretch:normal;font-size:122.66666412px;font-family:Handycheera;-inkscape-font-specification:Handycheera"
         id="path3348" />
      <path
         d="m 369.31138,116.24591 q 13.59635,-0.17969 21.5625,-15.63282 l 8.62499,-20.005204 q 0.95834,-2.276042 2.27605,-3.174479 1.25781,-0.898438 3.41406,-0.898438 l -4.3724,10.182292 -6.58854,15.273439 q -4.37239,10.12239 -11.73958,16.29166 -8.44531,7.12761 -18.80729,7.12761 -3.65365,0 -6.64844,-1.37761 -2.9349,-1.3776 -5.03125,-3.89323 -4.3125,-5.27083 -4.3125,-14.01562 0,-7.367187 2.33594,-14.434895 2.33594,-6.888021 6.40885,-12.278646 4.19271,-5.510417 9.52344,-8.565104 5.57031,-3.234375 11.61979,-3.234375 4.19271,0 6.88802,2.695313 2.51563,2.455729 2.51563,5.989583 0,5.690104 -2.875,11.320312 -2.51563,5.03125 -6.88802,9.403646 -3.95313,4.013016 -8.50521,6.408856 -4.3724,2.33594 -7.66667,2.33594 0,4.91145 1.61719,7.48697 2.03646,2.9948 6.64844,2.9948 z m 6.34895,-39.052087 q 0,-0.539062 -0.23958,-0.898437 -0.29948,-0.359375 -0.71875,-0.359375 -0.95833,0 -2.875,1.856771 -2.21615,2.036458 -4.2526,5.270833 -5.57032,8.625 -6.34896,19.166665 0.59896,0 2.875,-2.755207 2.39583,-2.934896 4.91146,-6.768229 2.875,-4.432292 4.61198,-8.205729 2.03645,-4.552084 2.03645,-7.307292 z"
         style="font-style:normal;font-variant:normal;font-weight:normal;font-stretch:normal;font-size:122.66666412px;font-family:Handycheera;-inkscape-font-specification:Handycheera"
         id="path3350" />
    </g>
  </g>
</svg>
