<?xml version="1.0" encoding="iso-8859-1"?>
<!-- Generator: Adobe Illustrator 19.0.0, SVG Export Plug-In . SVG Version: 6.00 Build 0)  -->
<svg xmlns="http://www.w3.org/2000/svg" xmlns:xlink="http://www.w3.org/1999/xlink" version="1.1" id="Capa_1" x="0px" y="0px" viewBox="0 0 512 512" style="enable-background:new 0 0 512 512;" xml:space="preserve">
<g>
	<g>
		<g>
			<path d="M444.99,87.626L39.976,492.641c-4.327,4.328-10.287,5.515-15.944,3.171c-5.656-2.343-9.032-7.397-9.032-13.517V306.467     c0-4.142-3.357-7.5-7.5-7.5c-4.143,0-7.5,3.358-7.5,7.5v175.827c0,12.211,7.009,22.702,18.291,27.374     c3.781,1.566,7.684,2.331,11.527,2.331c7.627-0.001,15.022-3.012,20.764-8.754L455.596,98.232c2.929-2.929,2.929-7.678,0-10.605     C452.667,84.698,447.919,84.698,444.99,87.626z" fill="red"/>
			<path d="M509.669,18.292C504.995,7.009,494.507,0,482.295,0H29.63C13.292,0,0,13.292,0,29.63v238.537c0,4.142,3.357,7.5,7.5,7.5     c4.143,0,7.5-3.358,7.5-7.5V29.63c0-8.068,6.563-14.631,14.631-14.631h41.227v28.414c0,4.142,3.358,7.5,7.5,7.5     c4.143,0,7.5-3.358,7.5-7.5V14.999h32.876v11.52c0,4.142,3.357,7.5,7.5,7.5c4.143,0,7.5-3.358,7.5-7.5v-11.52h32.876v28.414     c0,4.142,3.357,7.5,7.5,7.5s7.5-3.358,7.5-7.5V14.999h32.875v11.52c0,4.142,3.357,7.5,7.5,7.5c4.143,0,7.5-3.358,7.5-7.5v-11.52     h32.876v28.414c0,4.142,3.357,7.5,7.5,7.5c4.142,0,7.5-3.358,7.5-7.5V14.999h32.876v11.52c0,4.142,3.357,7.5,7.5,7.5     s7.5-3.358,7.5-7.5v-11.52h32.875v28.414c0,4.142,3.357,7.5,7.5,7.5c4.142,0,7.5-3.358,7.5-7.5V14.999h32.876v11.52     c0,4.142,3.357,7.5,7.5,7.5s7.5-3.358,7.5-7.5v-11.52h61.315c6.122,0,11.174,3.376,13.517,9.032     c2.343,5.656,1.157,11.616-3.172,15.944l-24.979,24.979c-2.929,2.929-2.929,7.678,0,10.605s7.677,2.93,10.606,0l24.979-24.979     C511.881,41.947,514.343,29.573,509.669,18.292z" fill="red"/>
			<path d="M248.322,143.099c-2.929,2.929-2.929,7.677,0,10.606c2.93,2.929,7.677,2.929,10.606,0l11.307-11.307     c8.321-8.323,10.694-20.251,6.19-31.125c-4.505-10.875-14.615-17.631-26.386-17.631H122.202c-15.748,0-28.56,12.812-28.56,28.56     v127.838c0,11.771,6.756,21.882,17.631,26.386c3.645,1.51,7.406,2.247,11.11,2.247c7.352,0,14.478-2.903,20.014-8.438     l91.508-91.507c2.929-2.929,2.929-7.677,0-10.606c-2.93-2.929-7.678-2.929-10.606,0L131.79,259.63     c-4.012,4.013-9.537,5.11-14.777,2.94c-5.242-2.171-8.372-6.855-8.372-12.529V122.203c0-7.478,6.084-13.561,13.561-13.561     h127.838c5.674,0,10.356,3.13,12.528,8.372c2.172,5.242,1.072,10.766-2.94,14.779L248.322,143.099z" fill="red"/>
		</g>
	</g>
</g>
<g>
</g>
<g>
</g>
<g>
</g>
<g>
</g>
<g>
</g>
<g>
</g>
<g>
</g>
<g>
</g>
<g>
</g>
<g>
</g>
<g>
</g>
<g>
</g>
<g>
</g>
<g>
</g>
<g>
</g>
</svg>
