<?xml version="1.0" encoding="iso-8859-1"?>
<!-- Generator: Adobe Illustrator 19.0.0, SVG Export Plug-In . SVG Version: 6.00 Build 0)  -->
<svg xmlns="http://www.w3.org/2000/svg" xmlns:xlink="http://www.w3.org/1999/xlink" version="1.1" id="Layer_1" x="0px" y="0px" viewBox="0 0 512 512" style="enable-background:new 0 0 512 512;" xml:space="preserve" >
<g>
	<g>
		<polygon points="1.532,199.654 1.532,512 17.55,512 17.55,215.671 129.674,215.671 129.674,512 145.692,512 145.692,199.654   " fill="#D80027"/>
	</g>
</g>
<g>
	<g>
		<rect x="29.815" y="230.922" width="15.673" height="24.033" fill="#D80027"/>
	</g>
</g>
<g>
	<g>
		<rect x="62.203" y="230.922" width="15.674" height="24.033" fill="#D80027"/>
	</g>
</g>
<g>
	<g>
		<rect x="93.55" y="230.922" width="15.673" height="24.033" fill="#D80027"/>
	</g>
</g>
<g>
	<g>
		<rect x="29.815" y="280.033" width="15.673" height="22.988" fill="#D80027"/>
	</g>
</g>
<g>
	<g>
		<rect x="62.203" y="280.033" width="15.674" height="22.988" fill="#D80027"/>
	</g>
</g>
<g>
	<g>
		<rect x="93.55" y="280.033" width="15.673" height="22.988" fill="#D80027"/>
	</g>
</g>
<g>
	<g>
		<rect x="29.815" y="328.098" width="15.673" height="24.033" fill="#D80027"/>
	</g>
</g>
<g>
	<g>
		<rect x="62.203" y="328.098" width="15.674" height="24.033" fill="#D80027"/>
	</g>
</g>
<g>
	<g>
		<rect x="93.55" y="328.098" width="15.673" height="24.033" fill="#D80027"/>
	</g>
</g>
<g>
	<g>
		<rect x="29.815" y="376.163" width="15.673" height="22.988" fill="#D80027"/>
	</g>
</g>
<g>
	<g>
		<rect x="62.203" y="376.163" width="15.674" height="22.988" fill="#D80027"/>
	</g>
</g>
<g>
	<g>
		<rect x="93.55" y="376.163" width="15.673" height="22.988" fill="#D80027"/>
	</g>
</g>
<g>
	<g>
		<rect x="29.815" y="424.229" width="15.673" height="24.033" fill="#D80027"/>
	</g>
</g>
<g>
	<g>
		<rect x="62.203" y="424.229" width="15.674" height="24.033" fill="#D80027"/>
	</g>
</g>
<g>
	<g>
		<rect x="93.55" y="424.229" width="15.673" height="24.033" fill="#D80027"/>
	</g>
</g>
<g>
	<g>
		<rect x="29.815" y="471.249" width="15.673" height="24.033" fill="#D80027"/>
	</g>
</g>
<g>
	<g>
		<rect x="62.203" y="471.249" width="15.674" height="24.033" fill="#D80027"/>
	</g>
</g>
<g>
	<g>
		<rect x="93.55" y="471.249" width="15.673" height="24.033" fill="#D80027"/>
	</g>
</g>
<g>
	<g>
		<polygon points="62.207,56.424 62.207,191.216 77.88,191.216 77.88,72.098 222.076,72.098 222.076,512 237.75,512 237.75,56.424       " fill="#D80027"/>
	</g>
</g>
<g>
	<g>
		<polygon points="246.109,278.988 246.109,294.661 342.24,294.661 342.24,512 357.913,512 357.913,278.988   " fill="#D80027"/>
	</g>
</g>
<g>
	<g>
		<polygon points="277.456,0 277.456,272.718 293.129,272.718 293.129,15.673 470.762,15.673 470.762,168.229 486.436,168.229     486.436,0   " fill="#D80027"/>
	</g>
</g>
<g>
	<g>
		<polygon points="405.978,175.543 405.978,512 421.652,512 421.652,191.216 510.468,191.216 510.468,175.543   " fill="#D80027"/>
	</g>
</g>
<g>
	<g>
		<rect x="93.55" y="96.131" width="15.673" height="22.988" fill="#D80027"/>
	</g>
</g>
<g>
	<g>
		<rect x="125.942" y="96.131" width="15.673" height="22.988" fill="#D80027"/>
	</g>
</g>
<g>
	<g>
		<rect x="158.333" y="96.131" width="15.673" height="22.988" fill="#D80027"/>
	</g>
</g>
<g>
	<g>
		<rect x="190.725" y="96.131" width="15.673" height="22.988" fill="#D80027"/>
	</g>
</g>
<g>
	<g>
		<rect x="93.55" y="144.196" width="15.673" height="24.033" fill="#D80027"/>
	</g>
</g>
<g>
	<g>
		<rect x="125.942" y="144.196" width="15.673" height="24.033" fill="#D80027"/>
	</g>
</g>
<g>
	<g>
		<rect x="158.333" y="144.196" width="15.673" height="24.033" fill="#D80027"/>
	</g>
</g>
<g>
	<g>
		<rect x="190.725" y="144.196" width="15.673" height="24.033" fill="#D80027"/>
	</g>
</g>
<g>
	<g>
		<rect x="158.333" y="191.216" width="15.673" height="25.078" fill="#D80027"/>
	</g>
</g>
<g>
	<g>
		<rect x="190.725" y="191.216" width="15.673" height="25.078" fill="#D80027"/>
	</g>
</g>
<g>
	<g>
		<rect x="158.333" y="240.327" width="15.673" height="24.033" fill="#D80027"/>
	</g>
</g>
<g>
	<g>
		<rect x="190.725" y="240.327" width="15.673" height="24.033" fill="#D80027"/>
	</g>
</g>
<g>
	<g>
		<rect x="158.333" y="287.347" width="15.673" height="24.033" fill="#D80027"/>
	</g>
</g>
<g>
	<g>
		<rect x="190.725" y="287.347" width="15.673" height="24.033" fill="#D80027"/>
	</g>
</g>
<g>
	<g>
		<rect x="158.333" y="336.457" width="15.673" height="22.988" fill="#D80027"/>
	</g>
</g>
<g>
	<g>
		<rect x="190.725" y="336.457" width="15.673" height="22.988" fill="#D80027"/>
	</g>
</g>
<g>
	<g>
		<rect x="158.333" y="384.522" width="15.673" height="22.988" fill="#D80027"/>
	</g>
</g>
<g>
	<g>
		<rect x="190.725" y="384.522" width="15.673" height="22.988" fill="#D80027"/>
	</g>
</g>
<g>
	<g>
		<rect x="158.333" y="432.588" width="15.673" height="24.033" fill="#D80027"/>
	</g>
</g>
<g>
	<g>
		<rect x="190.725" y="432.588" width="15.673" height="24.033" fill="#D80027"/>
	</g>
</g>
<g>
	<g>
		<rect x="158.333" y="479.608" width="15.673" height="25.078" fill="#D80027"/>
	</g>
</g>
<g>
	<g>
		<rect x="190.725" y="479.608" width="15.673" height="25.078" fill="#D80027"/>
	</g>
</g>
<g>
	<g>
		<rect x="309.844" y="39.706" width="15.674" height="24.033" fill="#D80027"/>
	</g>
</g>
<g>
	<g>
		<rect x="342.235" y="39.706" width="15.673" height="24.033" fill="#D80027"/>
	</g>
</g>
<g>
	<g>
		<rect x="374.627" y="39.706" width="15.673" height="24.033" fill="#D80027"/>
	</g>
</g>
<g>
	<g>
		<rect x="405.974" y="39.706" width="15.673" height="24.033" fill="#D80027"/>
	</g>
</g>
<g>
	<g>
		<rect x="438.366" y="39.706" width="15.673" height="24.033" fill="#D80027"/>
	</g>
</g>
<g>
	<g>
		<rect x="309.844" y="86.727" width="15.674" height="25.078" fill="#D80027"/>
	</g>
</g>
<g>
	<g>
		<rect x="342.235" y="86.727" width="15.673" height="25.078" fill="#D80027"/>
	</g>
</g>
<g>
	<g>
		<rect x="374.627" y="86.727" width="15.673" height="25.078" fill="#D80027"/>
	</g>
</g>
<g>
	<g>
		<rect x="405.974" y="86.727" width="15.673" height="25.078" fill="#D80027"/>
	</g>
</g>
<g>
	<g>
		<rect x="438.366" y="86.727" width="15.673" height="25.078" fill="#D80027"/>
	</g>
</g>
<g>
	<g>
		<rect x="309.844" y="134.792" width="15.674" height="25.078" fill="#D80027"/>
	</g>
</g>
<g>
	<g>
		<rect x="342.235" y="134.792" width="15.673" height="25.078" fill="#D80027"/>
	</g>
</g>
<g>
	<g>
		<rect x="374.627" y="134.792" width="15.673" height="25.078" fill="#D80027"/>
	</g>
</g>
<g>
	<g>
		<rect x="405.974" y="134.792" width="15.673" height="25.078" fill="#D80027"/>
	</g>
</g>
<g>
	<g>
		<rect x="438.366" y="134.792" width="15.673" height="25.078" fill="#D80027"/>
	</g>
</g>
<g>
	<g>
		<rect x="309.844" y="182.857" width="15.674" height="25.078" fill="#D80027"/>
	</g>
</g>
<g>
	<g>
		<rect x="342.235" y="182.857" width="15.673" height="25.078" fill="#D80027"/>
	</g>
</g>
<g>
	<g>
		<rect x="374.627" y="182.857" width="15.673" height="25.078" fill="#D80027"/>
	</g>
</g>
<g>
	<g>
		<rect x="309.844" y="230.922" width="15.674" height="24.033" fill="#D80027"/>
	</g>
</g>
<g>
	<g>
		<rect x="342.235" y="230.922" width="15.673" height="24.033" fill="#D80027"/>
	</g>
</g>
<g>
	<g>
		<rect x="374.627" y="230.922" width="15.673" height="24.033" fill="#D80027"/>
	</g>
</g>
<g>
	<g>
		<rect x="374.627" y="280.033" width="15.673" height="22.988" fill="#D80027"/>
	</g>
</g>
<g>
	<g>
		<rect x="374.627" y="328.098" width="15.673" height="24.033" fill="#D80027"/>
	</g>
</g>
<g>
	<g>
		<rect x="374.627" y="376.163" width="15.673" height="22.988" fill="#D80027"/>
	</g>
</g>
<g>
	<g>
		<rect x="374.627" y="424.229" width="15.673" height="24.033" fill="#D80027"/>
	</g>
</g>
<g>
	<g>
		<rect x="374.627" y="471.249" width="15.673" height="24.033" fill="#D80027"/>
	</g>
</g>
<g>
	<g>
		<rect x="446.725" y="223.608" width="15.673" height="24.033" fill="#D80027"/>
	</g>
</g>
<g>
	<g>
		<rect x="485.386" y="223.608" width="15.674" height="24.033" fill="#D80027"/>
	</g>
</g>
<g>
	<g>
		<rect x="446.725" y="272.718" width="15.673" height="21.943" fill="#D80027"/>
	</g>
</g>
<g>
	<g>
		<rect x="485.386" y="272.718" width="15.674" height="21.943" fill="#D80027"/>
	</g>
</g>
<g>
	<g>
		<rect x="446.725" y="319.739" width="15.673" height="24.033" fill="#D80027"/>
	</g>
</g>
<g>
	<g>
		<rect x="485.386" y="319.739" width="15.674" height="24.033" fill="#D80027"/>
	</g>
</g>
<g>
	<g>
		<rect x="446.725" y="366.759" width="15.673" height="24.033" fill="#D80027"/>
	</g>
</g>
<g>
	<g>
		<rect x="485.386" y="366.759" width="15.674" height="24.033" fill="#D80027"/>
	</g>
</g>
<g>
	<g>
		<rect x="446.725" y="415.869" width="15.673" height="24.033" fill="#D80027"/>
	</g>
</g>
<g>
	<g>
		<rect x="485.386" y="415.869" width="15.674" height="24.033" fill="#D80027"/>
	</g>
</g>
<g>
	<g>
		<rect x="446.725" y="462.89" width="15.673" height="26.122" fill="#D80027"/>
	</g>
</g>
<g>
	<g>
		<rect x="485.386" y="462.89" width="15.674" height="26.122" fill="#D80027"/>
	</g>
</g>
<g>
	<g>
		<rect x="245.06" y="319.739" width="15.673" height="24.033" fill="#D80027"/>
	</g>
</g>
<g>
	<g>
		<rect x="277.452" y="319.739" width="15.673" height="24.033" fill="#D80027"/>
	</g>
</g>
<g>
	<g>
		<rect x="309.844" y="319.739" width="15.674" height="24.033" fill="#D80027"/>
	</g>
</g>
<g>
	<g>
		<rect x="245.06" y="366.759" width="15.673" height="24.033" fill="#D80027"/>
	</g>
</g>
<g>
	<g>
		<rect x="277.452" y="366.759" width="15.673" height="24.033" fill="#D80027"/>
	</g>
</g>
<g>
	<g>
		<rect x="309.844" y="366.759" width="15.674" height="24.033" fill="#D80027"/>
	</g>
</g>
<g>
	<g>
		<rect x="245.06" y="415.869" width="15.673" height="24.033" fill="#D80027"/>
	</g>
</g>
<g>
	<g>
		<rect x="277.452" y="415.869" width="15.673" height="24.033" fill="#D80027"/>
	</g>
</g>
<g>
	<g>
		<rect x="309.844" y="415.869" width="15.674" height="24.033" fill="#D80027"/>
	</g>
</g>
<g>
	<g>
		<rect x="245.06" y="462.89" width="15.673" height="26.122" fill="#D80027"/>
	</g>
</g>
<g>
	<g>
		<rect x="277.452" y="462.89" width="15.673" height="26.122" fill="#D80027"/>
	</g>
</g>
<g>
	<g>
		<rect x="309.844" y="462.89" width="15.674" height="26.122" fill="#D80027"/>
	</g>
</g>
<g>
</g>
<g>
</g>
<g>
</g>
<g>
</g>
<g>
</g>
<g>
</g>
<g>
</g>
<g>
</g>
<g>
</g>
<g>
</g>
<g>
</g>
<g>
</g>
<g>
</g>
<g>
</g>
<g>
</g>
</svg>
