<?xml version="1.0" encoding="iso-8859-1"?>
<!-- Generator: Adobe Illustrator 16.0.0, SVG Export Plug-In . SVG Version: 6.00 Build 0)  -->
<!DOCTYPE svg PUBLIC "-//W3C//DTD SVG 1.1//EN" "http://www.w3.org/Graphics/SVG/1.1/DTD/svg11.dtd">
<svg xmlns="http://www.w3.org/2000/svg" xmlns:xlink="http://www.w3.org/1999/xlink" version="1.1" id="Capa_1" x="0px" y="0px" viewBox="0 0 337.788 337.787" style="enable-background:new 0 0 337.788 337.787;" xml:space="preserve">
<g>
	<g>
		<path d="M55.241,294.063c0,7.356,5.963,13.331,13.331,13.331h200.636c7.361,0,13.33-5.975,13.33-13.331v-29.915H55.241V294.063z" fill="#FFDA44"/>
		<path d="M292.301,162.247c2.234-4.834,4.174-9.064,5.741-12.883c2.401,0.573,4.863,0.939,7.428,0.939    c17.816,0,32.317-14.498,32.317-32.33s-14.501-32.33-32.317-32.33c-17.828,0-32.33,14.498-32.33,32.33    c0,1.58,0.252,3.092,0.463,4.612c-7.398,3.651-16.189,9.235-24.313,14.832l-11.253-40.313    c14.345-4.002,24.962-17.051,24.962-32.663c0-18.771-15.276-34.047-34.048-34.047c-18.776,0-34.047,15.276-34.047,34.047    c0,7.755,2.696,14.826,7.079,20.558l-34.846,34.155l-31.345-30.712c4.377-5.726,7.083-12.796,7.083-20.551    c0-18.78-15.273-34.053-34.042-34.053c-18.783,0-34.059,15.273-34.059,34.053c0,15.606,10.625,28.649,24.965,32.663L88.493,140.86    c-8.133-5.597-16.921-11.181-24.316-14.832c0.226-1.519,0.465-3.026,0.465-4.611c0-17.819-14.493-32.333-32.324-32.333    C14.493,89.084,0,103.592,0,121.417s14.493,32.336,32.318,32.336c2.564,0,5.023-0.382,7.416-0.94    c1.579,3.813,3.516,8.043,5.75,12.875c3.357,7.26,9.599,20.771,9.764,24.787v45.847h227.302v-49.239    C282.718,183.011,288.951,169.5,292.301,162.247z" fill="#FFDA44"/>
	</g>
</g>
<g>
</g>
<g>
</g>
<g>
</g>
<g>
</g>
<g>
</g>
<g>
</g>
<g>
</g>
<g>
</g>
<g>
</g>
<g>
</g>
<g>
</g>
<g>
</g>
<g>
</g>
<g>
</g>
<g>
</g>
</svg>
