<?xml version="1.0" encoding="iso-8859-1"?>
<!-- Generator: Adobe Illustrator 17.1.0, SVG Export Plug-In . SVG Version: 6.00 Build 0)  -->
<!DOCTYPE svg PUBLIC "-//W3C//DTD SVG 1.1//EN" "http://www.w3.org/Graphics/SVG/1.1/DTD/svg11.dtd">
<svg xmlns="http://www.w3.org/2000/svg" xmlns:xlink="http://www.w3.org/1999/xlink" version="1.1" id="Capa_1" x="0px" y="0px" viewBox="0 0 300.85 300.85" style="enable-background:new 0 0 300.85 300.85;" xml:space="preserve">
<g>
	<path d="M234.8,74.476c-3.235,0-6.439,0.281-9.591,0.839C223.133,33.435,188.409,0,146.023,0   C106.979,0,73.907,28.71,67.78,66.576c-31.465,1.144-56.708,27.097-56.708,58.836c0,32.465,26.412,58.877,58.877,58.877h93.549   c0.578,0,17.961,0.035,35.415,0.071c17.611,0.035,35.295,0.071,35.887,0.071c30.315,0,54.978-24.663,54.978-54.979   C289.778,99.139,265.115,74.476,234.8,74.476z M234.8,169.432c-0.592,0-18.26-0.036-35.857-0.071   c-17.469-0.036-34.867-0.071-35.445-0.071H69.949c-24.194,0-43.877-19.683-43.877-43.877c0-24.193,19.683-43.875,43.877-43.875   c1.193,0,2.449,0.058,3.838,0.179l7.604,0.662l0.529-7.614C84.247,41.251,112.404,15,146.023,15   c35.446,0,64.283,28.838,64.283,64.285c0,1.625-0.078,3.366-0.239,5.324l-0.981,11.964l11.183-4.363   c4.649-1.814,9.538-2.734,14.53-2.734c22.044,0,39.978,17.935,39.978,39.978C274.778,151.497,256.844,169.432,234.8,169.432z" fill="red"/>
	<path d="M158.561,209.119c-2.166-2.187-5.055-3.391-8.136-3.391c-3.08,0-5.97,1.204-8.137,3.392   l-32.211,32.538c-2.816,2.847-3.711,6.43-2.394,9.586c1.317,3.156,4.493,5.041,8.497,5.041h7.923v33.064   c0,6.341,5.159,11.5,11.5,11.5h29.644c6.341,0,11.5-5.159,11.5-11.5v-33.064h7.923c4.004,0,7.18-1.885,8.497-5.041   c1.317-3.156,0.422-6.739-2.395-9.587L158.561,209.119z M163.747,254.785v33.064h-26.644v-33.064c0-5.97-4.57-10.891-10.395-11.448   l23.717-23.958l23.717,23.958C168.317,243.895,163.747,248.816,163.747,254.785z" fill="red"/>
</g>
<g>
</g>
<g>
</g>
<g>
</g>
<g>
</g>
<g>
</g>
<g>
</g>
<g>
</g>
<g>
</g>
<g>
</g>
<g>
</g>
<g>
</g>
<g>
</g>
<g>
</g>
<g>
</g>
<g>
</g>
</svg>
