<?xml version="1.0" encoding="iso-8859-1"?>
<!-- Generator: Adobe Illustrator 19.0.0, SVG Export Plug-In . SVG Version: 6.00 Build 0)  -->
<svg version="1.1" id="Layer_1" xmlns="http://www.w3.org/2000/svg" xmlns:xlink="http://www.w3.org/1999/xlink" x="0px" y="0px"
	 viewBox="0 0 389.24 389.24" style="enable-background:new 0 0 389.24 389.24;" xml:space="preserve">
<g transform="translate(17 14)">
	<path style="fill:#FAFAFA;" d="M85.526,88.82c0-50.8,41.2-92,92-92s92,41.2,92,92c0,67.6-41.2,132-92,132
		S85.526,156.82,85.526,88.82L85.526,88.82z"/>
	<path style="fill:#FAFAFA;" d="M232.726,15.22c22.4,16.8,36.8,43.6,36.8,73.6c0,67.6-41.2,132-92,132
		C207.926,196.42,232.726,128.02,232.726,15.22z"/>
	<path style="fill:#E6E6E6;" d="M89.926,79.22c0,0,79.2,24.4,117.6-26.4c28.4,35.2,62,20.8,62,20.8s-20.8-76.4-84-76.4
		C98.726-2.78,89.926,79.22,89.926,79.22z"/>
	<path style="fill:#E6E6E6;" d="M217.926,5.22c0,10.4,0,29.6-18.8,52c24.4,31.6,70.8,10,70.8,10L217.926,5.22z"/>
	<g>
		<path style="fill:#303C42;" d="M130.726,92.82c-13.6,0-28-1.6-42.8-4.8c-4.4-0.8-7.2-5.2-6-9.6c0.8-4.4,5.2-7.2,9.6-6
			c50.4,11.2,93.6,1.2,106.8-25.2c2-4,6.8-5.6,10.8-3.6s5.6,6.8,3.6,10.8C199.526,79.22,169.526,92.82,130.726,92.82z"/>
		<path style="fill:#303C42;" d="M249.926,85.22c-20.4,0-40-10.4-50.8-28.4c-2.4-3.6-1.2-8.8,2.8-10.8c3.6-2.4,8.8-1.2,10.8,2.8
			c10.4,16.8,31.6,24.8,50.4,18.4c4.4-1.2,8.8,0.8,10,5.2s-0.8,8.8-5.2,10C261.926,84.42,255.926,85.22,249.926,85.22z"/>
		<path style="fill:#303C42;" d="M177.526,228.82c-53.2,0-100-65.6-100-140c0-55.2,44.8-100,100-100s100,44.8,100,100
			C277.526,163.22,230.726,228.82,177.526,228.82z M177.526,4.82c-46.4,0-84,37.6-84,84c0,66,39.2,124,84,124s84-58,84-124
			C261.526,42.42,223.926,4.82,177.526,4.82z"/>
	</g>
	<g>
		<path style="fill:#E6E6E6;" d="M363.526,344.02l-18.4-60.8c-9.6-34-36.4-60.4-70.8-69.2l-5.2-1.6c-0.4,0-0.8-0.4-1.2-0.4
			c-4.4-1.2-8.8,0.4-12,3.6c-21.6,25.2-48.8,40.8-78.4,40.8s-56.8-15.6-78.4-40.4c-2.8-3.2-7.6-4.8-12-3.6h-1.2l-5.2,1.6
			c-34,8.8-61.2,35.2-70.8,69.2l-18.4,60.8c-2.8,10.4,4.8,20.4,15.2,20.4h341.6C359.126,364.42,366.726,354.42,363.526,344.02
			L363.526,344.02z"/>
		<path style="fill:#303C42;" d="M348.326,372.42H6.726c-7.6,0-14.4-3.2-18.8-9.2c-4.8-6-6-13.6-4-21.2l18.4-61.2
			c10.4-36.4,39.6-65.2,76.4-74.4l4.8-1.6c0.8-0.4,1.6-0.4,2.4-0.4h0.4c6.8-1.2,14.4,1.2,18.8,6.4c14.8,17.2,39.6,37.6,72.4,37.6
			c26,0,51.2-13.2,72.4-38l0.4-0.4c5.2-5.2,12.4-7.6,19.2-6c0.8,0,1.6,0.4,2,0.8l5.2,1.6c36.4,9.2,65.6,38,76,74.8l18.4,60.8
			c2.4,7.2,0.8,15.2-3.6,21.2C363.126,368.82,355.926,372.42,348.326,372.42z M87.126,220.42l-4,1.2c-31.6,8.4-56.8,32.4-65.6,63.6
			l-18.4,61.2c-0.8,2.4,0,4.8,1.6,7.2c1.2,1.6,3.6,2.8,6,2.8h341.6c2.8,0,5.2-1.2,6.4-3.2c0.8-1.2,2-3.6,1.2-6.8l0,0l-18.4-60.8
			c-8.8-31.2-33.6-55.6-65.2-63.6l-5.2-1.6c-0.8,0-1.2-0.4-1.6-0.4c-1.6-0.4-3.2,0.8-4,1.6c-24,28-54,43.2-84.4,43.2
			s-60-15.2-84.4-43.2c-0.8-0.8-2.4-1.6-4-1.2C88.726,220.42,87.926,220.42,87.126,220.42z"/>
	</g>
	<g>
		<path style="fill:#E6E6E6;" d="M106.726,342.02c2-7.6,10-13.6,18-13.6h162v28h-184L106.726,342.02z"/>
		<path style="fill:#E6E6E6;" d="M26.726,342.02c2-7.6,10-13.6,18-13.6h22v28h-44L26.726,342.02z"/>
	</g>
	<g>
		<path style="fill:#303C42;" d="M295.526,364.02c0,0-6.4-21.6-9.6-32.4 M79.926,298.82c-1.2,2.4-2,4.8-3.2,7.2 M69.926,328.82
			c-3.2,10.8-7.6,25.2-10.8,35.2"/>
		<path style="fill:#303C42;" d="M59.126,372.02c-0.8,0-1.6,0-2.4-0.4c-4.4-1.2-6.4-6-5.2-10c2.8-9.2,7.2-23.6,10.8-35.2
			c1.2-4.4,5.6-6.8,10-5.2c4.4,1.2,6.8,5.6,5.2,10c-3.6,11.6-8,26-10.8,35.2C65.526,370.02,62.326,372.02,59.126,372.02z
			 M287.926,366.42l-9.6-32.4c-1.2-4.4,1.2-8.8,5.2-10c4.4-1.2,8.8,1.2,10,5.2l9.6,32.4L287.926,366.42z M76.726,314.02
			c-1.2,0-2.4-0.4-3.6-0.8c-4-2-5.6-6.8-3.6-10.8c0.4-1.2,0.8-2,1.2-3.2c0.4-1.2,1.2-2.8,2-4c2-4,6.8-5.6,10.8-3.6s5.6,6.8,3.6,10.8
			c-0.4,1.2-0.8,2-1.2,3.2c-0.4,1.2-1.2,2.8-2,4C82.326,312.42,79.526,314.02,76.726,314.02z"/>
	</g>
</g>
<g>
</g>
<g>
</g>
<g>
</g>
<g>
</g>
<g>
</g>
<g>
</g>
<g>
</g>
<g>
</g>
<g>
</g>
<g>
</g>
<g>
</g>
<g>
</g>
<g>
</g>
<g>
</g>
<g>
</g>
</svg>
